<svg width="128" height="128" viewBox="0 0 128 128" fill="none" xmlns="http://www.w3.org/2000/svg">
<path d="M64.0005 0C111.297 0 128 16.7823 128 64C128 111.039 111.018 128 64.0005 128C17.121 128 0.000488281 110.822 0.000488281 64C0.000488281 16.999 16.8418 0 64.0005 0Z" fill="black"/>
<path d="M58.1531 63.5457C58.1531 48.4588 69.6193 36.0499 84.3126 34.5582C86.2856 34.3579 87.2909 34.5307 87.2909 36.836V54.4401C87.2909 56.1333 87.0443 56.4042 84.3126 56.4042C80.653 56.4042 77.6352 60.0167 77.6352 63.5457C77.6352 67.5688 80.2895 70.8301 84.3126 70.8301C87.2909 70.8301 87.2909 69.1645 87.2909 67.112C87.2909 65.0595 87.2909 59.8744 87.2909 58.6894C87.2909 57.0706 87.86 56.2612 89.3776 56.2612C90.5611 56.2612 95.315 56.2612 98.6539 56.2612C100.141 56.2612 100.211 56.2891 101.065 57.4741C101.065 57.4741 104.791 62.6161 105.441 63.5457C106.09 64.4752 106.166 64.7597 105.441 65.8426C104.715 66.9254 101.065 72.0235 101.065 72.0235C100.213 73.2259 100.153 73.2583 98.6539 73.2583C95.3052 73.2583 95.3196 73.2583 91.6884 73.2583C88.0572 73.2583 87.2909 76.2553 87.2909 78.0387C87.2909 79.8221 87.2909 89.6483 87.2909 89.6483C87.2909 92.354 86.8119 92.7869 84.3126 92.5331C69.6193 91.0414 58.1531 78.6326 58.1531 63.5457Z" fill="white"/>
<path fill-rule="evenodd" clip-rule="evenodd" d="M41.2129 82.9709C51.9412 82.9709 60.6382 74.274 60.6382 63.5457C60.6382 52.8174 51.9412 44.1205 41.2129 44.1205C30.4847 44.1205 21.7877 52.8174 21.7877 63.5457C21.7877 74.274 30.4847 82.9709 41.2129 82.9709ZM41.2129 70.0207C44.789 70.0207 47.688 67.1217 47.688 63.5457C47.688 59.9696 44.789 57.0706 41.2129 57.0706C37.6368 57.0706 34.7379 59.9696 34.7379 63.5457C34.7379 67.1217 37.6368 70.0207 41.2129 70.0207Z" fill="white"/>
</svg>
