<svg width="128" height="128" viewBox="0 0 128 128" fill="none" xmlns="http://www.w3.org/2000/svg">
<path d="M64 0.500011C87.6132 0.500015 103.44 4.69466 113.382 14.6468C123.325 24.599 127.5 40.4258 127.5 64C127.5 87.4827 123.256 103.311 113.278 113.286C103.3 123.262 87.472 127.5 64 127.5C40.599 127.5 24.7699 123.208 14.7739 113.205C4.77775 103.201 0.499985 87.3723 0.499989 64C0.499993 40.5357 4.70888 24.7078 14.6694 14.7278C24.6297 4.74812 40.4574 0.500007 64 0.500011Z" fill="black" stroke="black"/>
<g clip-path="url(#clip0_1206_7474)">
<path d="M64.2581 52.8036C56.8105 53.2195 51.1508 47.9792 51.0151 40.1188C51.1254 31.6438 56.9187 28.5977 64.3176 28.5977C71.1749 28.5977 71.3723 24.9306 71.4219 23.9421C71.4219 21.9849 69.7702 19.7621 67.2355 19.7621C64.738 19.7621 63.0969 21.7379 63.0969 23.9421C63.0969 24.6403 62.6016 25.2419 61.4671 25.2419C60.3325 25.2419 59.8592 24.5065 59.8138 23.9421C59.8138 18.524 62.8362 16 67.2355 16C72.9315 16 76.1763 19.6694 76.1763 23.9907C76.1763 33.3147 67.2489 34.6211 64.2324 35.1752C61.216 35.7293 58.6021 37.3517 58.6021 40.7091C58.6021 43.4104 60.6628 45.9715 64.1128 45.9715C65.9262 45.9715 67.5815 44.8473 68.459 43.0866C69.0195 43.265 70.7831 52.8036 63.6113 52.8036H64.2581Z" fill="white"/>
<path d="M56.3269 56.049C51.3548 61.6093 43.6472 61.9058 37.9932 56.4437C32.0784 50.373 34.021 44.1225 39.2528 38.8908C44.1017 34.0419 41.6482 31.3092 40.9843 30.5753C39.6003 29.1913 36.8606 28.7874 35.0683 30.5797C33.3023 32.3457 33.539 34.9033 35.0976 36.4619C35.5913 36.9556 35.6665 37.7312 34.8643 38.5335C34.062 39.3357 33.2073 39.1504 32.7761 38.7834C28.9449 34.9522 29.2973 31.0304 32.4081 27.9196C36.4358 23.8919 41.3249 24.1922 44.3805 27.2477C50.9736 33.8408 45.5847 41.0772 43.8436 43.6019C42.1024 46.1267 41.4013 49.1222 43.7753 51.4963C45.6855 53.4064 48.9536 53.7602 51.3931 51.3207C52.6754 50.0384 53.0509 48.073 52.4264 46.2075C52.9489 45.9374 60.9408 51.4351 55.8696 56.5063L56.3269 56.049Z" fill="white"/>
<path d="M53.0136 63.9519C53.4295 71.3995 48.1891 77.0592 40.3288 77.1949C31.8538 77.0846 28.8077 71.2913 28.8077 63.8924C28.8077 57.0351 25.1405 56.8377 24.1521 56.7881C22.1948 56.7881 19.972 58.4398 19.972 60.9745C19.972 63.472 21.9479 65.1132 24.1521 65.1132C24.8503 65.1132 25.4519 65.6084 25.4519 66.7429C25.4519 67.8775 24.7165 68.3508 24.1521 68.3962C18.7339 68.3962 16.21 65.3738 16.21 60.9745C16.21 55.2785 19.8794 52.0338 24.2006 52.0338C33.5247 52.0338 34.831 60.9611 35.3851 63.9776C35.9392 66.994 37.5616 69.6079 40.919 69.6079C43.6204 69.6079 46.1815 67.5472 46.1815 64.0972C46.1815 62.2838 45.0572 60.6285 43.2965 59.751C43.475 59.1905 53.0136 57.4269 53.0136 64.5987V63.9519Z" fill="white"/>
<path d="M56.2589 71.883C61.8192 76.8552 62.1157 84.5627 56.6536 90.2167C50.5829 96.1315 44.3324 94.1889 39.1007 88.9571C34.2518 84.1083 31.5191 86.5617 30.7852 87.2256C29.4012 88.6096 28.9973 91.3493 30.7896 93.1416C32.5556 94.9076 35.1132 94.6709 36.6718 93.1123C37.1655 92.6186 37.9411 92.5434 38.7434 93.3456C39.5456 94.1479 39.3603 95.0026 38.9933 95.4338C35.1621 99.265 31.2403 98.9126 28.1295 95.8018C24.1018 91.7741 24.4021 86.885 27.4576 83.8295C34.0507 77.2364 41.2871 82.6252 43.8118 84.3664C46.3366 86.1075 49.3321 86.8086 51.7062 84.4346C53.6163 82.5244 53.9701 79.2563 51.5306 76.8168C50.2483 75.5345 48.2829 75.159 46.4174 75.7835C46.1473 75.261 51.645 67.2692 56.7162 72.3404L56.2589 71.883Z" fill="white"/>
<path d="M64.1619 75.1964C71.6095 74.7804 77.2692 80.0208 77.4049 87.8811C77.2947 96.3562 71.5013 99.4022 64.1025 99.4022C57.2451 99.4022 57.0477 103.069 56.9981 104.058C56.9981 106.015 58.6498 108.238 61.1845 108.238C63.682 108.238 65.3232 106.262 65.3232 104.058C65.3232 103.36 65.8184 102.758 66.953 102.758C68.0875 102.758 68.5609 103.493 68.6062 104.058C68.6062 109.476 65.5839 112 61.1845 112C55.4886 112 52.2438 108.331 52.2438 104.009C52.2438 94.6853 61.1711 93.3789 64.1876 92.8248C67.204 92.2707 69.818 90.6483 69.818 87.2909C69.818 84.5896 67.7572 82.0285 64.3072 82.0285C62.4938 82.0285 60.8386 83.1527 59.961 84.9134C59.4006 84.7349 57.6369 75.1964 64.8087 75.1964H64.1619Z" fill="white"/>
<path d="M72.0931 71.9511C77.0652 66.3907 84.7727 66.0942 90.4267 71.5564C96.3415 77.6271 94.3989 83.8775 89.1671 89.1093C84.3183 93.9581 86.7718 96.6908 87.4357 97.4248C88.8196 98.8088 91.5593 99.2126 93.3516 97.4203C95.1176 95.6543 94.881 93.0967 93.3223 91.5381C92.8286 91.0444 92.7534 90.2688 93.5557 89.4666C94.3579 88.6643 95.2127 88.8496 95.6438 89.2166C99.475 93.0478 99.1226 96.9697 96.0118 100.08C91.9841 104.108 87.095 103.808 84.0395 100.752C77.4464 94.1592 82.8352 86.9229 84.5764 84.3981C86.3175 81.8734 87.0186 78.8778 84.6446 76.5038C82.7345 74.5936 79.4663 74.2398 77.0268 76.6794C75.7446 77.9616 75.3691 79.927 75.9936 81.7925C75.471 82.0627 67.4792 76.5649 72.5504 71.4937L72.0931 71.9511Z" fill="white"/>
<path d="M75.4064 64.0481C74.9905 56.6005 80.2308 50.9408 88.0912 50.8051C96.5662 50.9153 99.6123 56.7087 99.6123 64.1075C99.6123 70.9649 103.279 71.1623 104.268 71.2119C106.225 71.2119 108.448 69.5602 108.448 67.0255C108.448 64.528 106.472 62.8868 104.268 62.8868C103.57 62.8868 102.968 62.3916 102.968 61.257C102.968 60.1225 103.704 59.6492 104.268 59.6038C109.686 59.6038 112.21 62.6261 112.21 67.0255C112.21 72.7215 108.541 75.9662 104.219 75.9662C94.8953 75.9662 93.5889 67.0389 93.0348 64.0224C92.4807 61.006 90.8583 58.392 87.5009 58.392C84.7996 58.392 82.2385 60.4528 82.2385 63.9028C82.2385 65.7162 83.3627 67.3714 85.1234 68.249C84.945 68.8095 75.4064 70.5731 75.4064 63.4013V64.0481Z" fill="white"/>
<path d="M72.161 56.1169C66.6007 51.1448 66.3041 43.4373 71.7663 37.7832C77.837 31.8684 84.0875 33.8111 89.3192 39.0428C94.1681 43.8917 96.9008 41.4382 97.6347 40.7743C99.0187 39.3904 99.4226 36.6507 97.6303 34.8584C95.8643 33.0923 93.3067 33.329 91.7481 34.8877C91.2544 35.3813 90.4788 35.4566 89.6765 34.6543C88.8743 33.8521 89.0596 32.9973 89.4266 32.5662C93.2578 28.735 97.1796 29.0874 100.29 32.1982C104.318 36.2259 104.018 41.1149 100.962 44.1705C94.3692 50.7636 87.1328 45.3747 84.6081 43.6336C82.0833 41.8925 79.0878 41.1913 76.7137 43.5654C74.8036 45.4755 74.4498 48.7436 76.8893 51.1832C78.1716 52.4654 80.137 52.8409 82.0025 52.2164C82.2726 52.7389 76.7749 60.7308 71.7037 55.6596L72.161 56.1169Z" fill="white"/>
<path d="M64.2292 46.175C54.3848 46.175 46.4043 54.1556 46.4043 64C46.4043 73.8445 54.3848 81.8249 64.2292 81.8249C74.0737 81.8249 82.0542 73.8445 82.0542 64C82.0542 54.1556 74.0737 46.175 64.2292 46.175ZM64.2292 72.9125C59.307 72.9125 55.3168 68.9222 55.3168 64C55.3168 59.0778 59.307 55.0875 64.2292 55.0875C69.1515 55.0875 73.1417 59.0778 73.1417 64C73.1417 68.9222 69.1515 72.9125 64.2292 72.9125Z" fill="white"/>
</g>
<defs>
<clipPath id="clip0_1206_7474">
<rect width="96" height="96" fill="white" transform="translate(16.21 16)"/>
</clipPath>
</defs>
</svg>
