<svg width="128" height="128" viewBox="0 0 128 128" fill="none" xmlns="http://www.w3.org/2000/svg">
<g clip-path="url(#clip0_1206_7440)">
<path d="M32.5109 102.987C29.131 106.24 25.9769 109.69 23.0637 113.308C25.8329 115.602 28.7982 117.667 31.9313 119.475C46.2591 89.2681 78.7454 73.9571 109.776 66.6933C81.4049 72.1342 53.5155 82.9539 32.5109 102.987Z" fill="black"/>
<path d="M63.8829 72.726C44.5404 77.9363 25.2687 85.1903 8.36609 95.8922C10.2207 99.1127 12.3497 102.155 14.7174 104.99C36.3747 83.5364 66.102 72.2778 95.6842 67.494C102.402 66.3582 107.316 65.722 114.055 64.9682C96.532 66.1316 80.8844 68.3648 63.8829 72.726Z" fill="black"/>
<path d="M63.8397 128C63.8484 128 63.857 128 63.8656 128C67.7739 128 71.6 127.648 75.3149 126.977C75.3197 126.9 75.3186 126.824 75.3271 126.747C77.4629 103.111 93.1923 82.8818 112.568 70.121C89.4937 82.3306 65.3075 102.049 63.8397 128Z" fill="black"/>
<path d="M42.094 124.199C45.6758 125.494 49.4067 126.477 53.2532 127.119C57.0995 101.077 79.9857 83.2358 102.298 72.5115C106.499 70.4922 110.78 68.6726 115.12 67.04C84.811 76.6457 53.4011 93.3074 42.094 124.199Z" fill="black"/>
<path d="M121.784 62.0533C120.237 60.9058 118.727 59.6164 117.304 58.3162C103.917 46.0472 93.2755 27.8049 96.6354 9.01928C93.0988 6.90676 89.3416 5.12623 85.406 3.71973C85.663 12.6321 88.128 21.4333 92.2115 29.392C98.0491 40.7618 106.672 50.6912 116.78 58.5721C118.46 59.8406 120.182 61.1123 121.997 62.2087C121.926 62.1566 121.854 62.1057 121.784 62.0533Z" fill="black"/>
<path d="M116.78 69.3771C106.672 77.258 98.0492 87.1874 92.2116 98.5571C88.1203 106.531 85.6537 115.351 85.4048 124.281C89.3438 122.873 93.1041 121.091 96.6436 118.976C93.2579 100.174 103.906 81.912 117.304 69.6329C118.727 68.3328 120.237 67.0434 121.784 65.8958C121.854 65.8435 121.926 65.7926 121.997 65.7405C120.182 66.8369 118.46 68.1085 116.78 69.3771Z" fill="black"/>
<path d="M62.7998 65.7479C42.2832 66.7992 20.8459 68.0091 0.430176 69.8305C0.330584 69.8397 0.232621 69.8385 0.133789 69.8427C0.619918 75.2129 1.76884 80.3909 3.49911 85.2956C27.6201 75.4802 52.93 70.3626 78.5806 66.8851C84.0158 66.086 89.4728 65.4241 94.9431 64.9128C84.154 65.0942 73.3674 65.2941 62.7998 65.7479Z" fill="black"/>
<path d="M75.327 1.20265C75.3205 1.14234 75.3219 1.08317 75.3176 1.02315C71.6018 0.35187 67.7749 0 63.8656 0C63.8579 0 63.8503 0.000289363 63.8427 0.000289363C65.3391 25.9254 89.5087 45.6266 112.567 57.8281C93.1923 45.0673 77.4629 24.8385 75.327 1.20265Z" fill="black"/>
<path d="M102.298 55.4377C79.9998 44.7202 57.1286 26.8944 53.2606 0.879639C49.4175 1.52063 45.6897 2.50175 42.1108 3.79524C53.432 34.6577 84.8257 51.3081 115.12 60.9092C110.78 59.2765 106.499 57.457 102.298 55.4377Z" fill="black"/>
<path d="M104.812 14.814C103.356 20.6666 103.599 26.8872 105.014 32.7723C107.294 41.8562 111.935 50.4093 118.125 57.5097C120.162 59.7939 122.364 62.0164 124.951 63.6738C124.97 63.6761 124.988 63.6785 125.006 63.6809C125.042 63.6693 125.079 63.6576 125.116 63.6466C125.231 63.6117 125.353 63.6769 125.388 63.7924C125.396 63.8211 125.398 63.85 125.395 63.8782C125.412 63.907 125.424 63.9391 125.428 63.9744L125.211 64.2472C125.197 64.2501 125.184 64.256 125.17 64.2564C125.131 64.258 125.093 64.2602 125.055 64.2618C125.02 64.2662 124.986 64.2709 124.951 64.2753C122.364 65.9327 120.162 68.1552 118.125 70.4394C111.935 77.5398 107.294 86.0929 105.014 95.1768C103.596 101.076 103.355 107.312 104.822 113.177C118.903 101.438 127.866 83.7664 127.866 64C127.866 44.2288 118.899 26.5538 104.812 14.814Z" fill="black"/>
<path d="M95.6841 60.4552C66.1127 55.6731 36.3961 44.4209 14.7408 22.9819C12.3729 25.8147 10.2436 28.8536 8.38794 32.0708C25.2853 42.7651 44.5487 50.0151 63.8828 55.2232C80.8844 59.5844 96.532 61.8175 114.055 62.981C107.316 62.2272 102.402 61.591 95.6841 60.4552Z" fill="black"/>
<path d="M78.5806 61.064C52.9356 57.5873 27.631 52.4712 3.51474 42.66C1.79707 47.5174 0.649143 52.6433 0.151367 57.9589C0.24405 57.9637 0.336842 57.9693 0.430176 57.9787C26.0341 60.1789 52.6957 61.945 78.3923 62.7342C83.7138 62.8097 89.2337 62.9086 94.8136 63.0234C89.3867 62.5137 83.9729 61.8569 78.5806 61.064Z" fill="black"/>
<path d="M31.9498 8.51434C28.8192 10.319 25.8559 12.3811 23.0883 14.6715C25.9947 18.278 29.1404 21.7178 32.5109 24.9618C53.5155 44.9952 81.4049 55.815 109.776 61.2559C78.759 53.9952 46.2872 38.6947 31.9498 8.51434Z" fill="black"/>
<path d="M63.6554 124.921C63.6353 124.986 63.6143 125.051 63.5942 125.116C63.5632 125.221 63.6155 125.337 63.7193 125.381C63.7536 125.395 63.7888 125.397 63.8233 125.394C63.8513 125.411 63.8826 125.423 63.9172 125.427L63.6554 124.921Z" fill="white"/>
</g>
<defs>
<clipPath id="clip0_1206_7440">
<rect width="127.732" height="128" fill="white" transform="translate(0.133789)"/>
</clipPath>
</defs>
</svg>
