<svg width="128" height="128" viewBox="0 0 128 128" fill="none" xmlns="http://www.w3.org/2000/svg">
<circle cx="64" cy="64" r="64" fill="black"/>
<path d="M64 52.5238L56.9286 62.7381C53.5238 58.8095 49.8571 53.5714 43.0476 53.5714C37.2857 53.5714 32.3095 58.2857 32.3095 64.0476C32.3095 69.8095 36.2381 74.7857 43.0476 74.7857C49.8571 74.7857 55.619 67.4524 60.5952 60.6429C66.296 52.8417 72.7764 41 89.1429 41C97.5349 41 102.5 44.6667 107.214 49.119L99.3571 57.2381C96.4762 54.881 93.8571 52.5238 88.619 52.5238C82.0714 52.5238 78.4833 53.8333 72.7764 61.9524C71.7316 63.4387 66.6888 70.0866 65.3095 71.9048C59.5476 79.5 54.0476 87.0952 43.0476 87.0952C29.6905 87.0952 20 76.0952 20 64.0476C20 52 28.6429 41 43.0476 41C52.2143 41 58.72 47.16 64 52.5238Z" fill="white"/>
<path d="M98.8333 69.2858C96.738 71.1191 93.5952 74.7858 88.8809 74.7858C81.2856 74.7858 77.7116 69.7619 73.5001 64L66.5001 73.5C70.8093 80.3315 77.4859 87.0953 89.6665 87.0953C97.3666 87.0953 103.548 82.6429 108 76.881L98.8333 69.2858Z" fill="white"/>
</svg>
