<svg width="128" height="128" viewBox="0 0 128 128" fill="none" xmlns="http://www.w3.org/2000/svg">
<path d="M64 1.11901e-05C111.296 1.94597e-05 128 16.7823 128 64C128 111.039 111.018 128 64 128C17.1205 128 -1.93767e-05 110.822 -1.11901e-05 64C-2.9722e-06 16.999 16.8413 2.94463e-06 64 1.11901e-05Z" fill="black"/>
<g opacity="0.3">
<path fill-rule="evenodd" clip-rule="evenodd" d="M63 112C89.5097 112 111 90.5097 111 64C111 37.4903 89.5097 16 63 16C36.4903 16 15 37.4903 15 64C15 90.5097 36.4903 112 63 112ZM63.0001 101.714C83.8291 101.714 100.714 84.8291 100.714 64.0001C100.714 43.1711 83.8291 26.2858 63.0001 26.2858C42.1711 26.2858 25.2858 43.1711 25.2858 64.0001C25.2858 84.8291 42.1711 101.714 63.0001 101.714Z" fill="#7E7E7E"/>
<path fill-rule="evenodd" clip-rule="evenodd" d="M62.9999 98.2856C81.9354 98.2856 97.2857 82.9354 97.2857 63.9999C97.2856 45.0644 81.9354 29.7142 62.9999 29.7142C44.0645 29.7142 28.7142 45.0644 28.7142 63.9999C28.7142 82.9354 44.0645 98.2856 62.9999 98.2856ZM63.0001 87.9999C76.2549 87.9999 87.0001 77.2548 87.0001 63.9999C87.0001 50.7451 76.2549 39.9999 63.0001 39.9999C49.7453 39.9999 39.0001 50.7451 39.0001 63.9999C39.0001 77.2548 49.7453 87.9999 63.0001 87.9999Z" fill="#7E7E7E"/>
<path fill-rule="evenodd" clip-rule="evenodd" d="M62.9998 84.5713C74.3611 84.5713 83.5712 75.3611 83.5712 63.9998C83.5712 52.6386 74.3611 43.4284 62.9998 43.4284C51.6385 43.4284 42.4283 52.6386 42.4283 63.9998C42.4283 75.3611 51.6385 84.5713 62.9998 84.5713ZM62.9998 74.2857C68.6804 74.2857 73.2855 69.6806 73.2855 64C73.2855 58.3193 68.6804 53.7143 62.9998 53.7143C57.3191 53.7143 52.7141 58.3193 52.7141 64C52.7141 69.6806 57.3191 74.2857 62.9998 74.2857Z" fill="#7E7E7E"/>
</g>
<path d="M63.0291 17.6862C63.0291 16.7389 62.2578 15.9678 61.311 16.001C35.581 16.9057 15 38.0494 15 64C15 89.9506 35.581 111.094 61.311 111.999C62.2578 112.032 63.0291 111.261 63.0291 110.314L63.0291 103.453C63.0291 102.505 62.2595 101.741 61.3131 101.699C41.2679 100.802 25.2919 84.2666 25.2919 64C25.2919 43.7335 41.2679 27.1983 61.3131 26.3012C62.2595 26.2588 63.0291 25.4949 63.0291 24.5475L63.0291 17.6862Z" fill="white"/>
<path d="M81.8686 63.9931C82.8159 63.9931 83.5913 63.2224 83.5135 62.2783C82.6421 51.7124 73.7907 43.4092 63 43.4092C52.2093 43.4092 43.3579 51.7124 42.4865 62.2783C42.4086 63.2224 43.184 63.9931 44.1314 63.9931H50.9927C51.94 63.9931 52.693 63.2193 52.8491 62.2849C53.6628 57.4138 57.8978 53.7011 63 53.7011C68.1021 53.7011 72.3372 57.4138 73.1508 62.2849C73.3069 63.2193 74.0599 63.9931 75.0073 63.9931H81.8686Z" fill="white"/>
<path d="M81.2458 36.9413C81.7761 36.1563 81.5713 35.0858 80.7611 34.5948C65.2204 25.176 44.8579 29.5218 34.5745 44.746C24.2911 59.9702 27.8627 80.4827 42.403 91.3825C43.161 91.9507 44.2306 91.741 44.7608 90.956L48.6014 85.2702C49.1316 84.4852 48.9194 83.4227 48.1736 82.8385C38.3389 75.134 36.0023 61.0193 43.1032 50.5068C50.204 39.9943 64.1703 36.8916 74.9897 43.1382C75.8102 43.6119 76.875 43.4121 77.4053 42.627L81.2458 36.9413Z" fill="white"/>
<path d="M69.8613 64C69.8613 67.7894 66.7894 70.8613 63 70.8613C59.2106 70.8613 56.1387 67.7894 56.1387 64C56.1387 60.2106 59.2106 57.1387 63 57.1387C66.7894 57.1387 69.8613 60.2106 69.8613 64Z" fill="white"/>
</svg>
