<svg width="129" height="128" viewBox="0 0 129 128" fill="none" xmlns="http://www.w3.org/2000/svg">
<path d="M65 0C112.296 0 129 16.7823 129 64C129 111.039 112.018 128 65 128C18.1206 128 1 110.822 1 64C1 16.999 17.8413 0 65 0Z" fill="black"/>
<path fill-rule="evenodd" clip-rule="evenodd" d="M29.7124 60.7188L61.7188 60.7188V53.059C52.6833 52.4399 43.7981 49.1231 36.3725 43.1085C32.6967 48.1368 30.3136 54.1699 29.7124 60.7188ZM61.7188 67.2813L29.7124 67.2812C30.3253 73.9565 32.7894 80.096 36.5869 85.1817C44.0138 79.4611 52.8087 76.3601 61.7188 75.8788V67.2813ZM68.2813 67.2813L100.288 67.2813C99.6418 74.3157 96.9401 80.7551 92.7887 85.9933C85.6034 80.1218 77.0356 76.7899 68.2813 75.9978V67.2813ZM100.288 60.7188L68.2813 60.7188V53.0348C77.2862 52.3511 86.1258 48.9855 93.5021 42.9379C97.2491 48.0001 99.6796 54.0957 100.288 60.7188ZM40.9987 90.0724C47.1612 85.456 54.3866 82.9161 61.7188 82.4526L61.7188 99.2876C53.7568 98.5566 46.5572 95.1919 40.9987 90.0724ZM68.2813 82.5919L68.2812 99.2876C75.8837 98.5896 82.7911 95.4904 88.2384 90.755C82.3427 86.0671 75.3965 83.3461 68.2813 82.5919ZM89.1229 38.0401C82.9983 42.9858 75.7171 45.7891 68.2813 46.45L68.2813 28.7124C76.3014 29.4487 83.548 32.8574 89.1229 38.0401ZM40.7226 38.1847C46.3177 32.9208 53.6243 29.4555 61.7188 28.7124L61.7188 46.4783C54.2397 45.8785 46.9017 43.114 40.7226 38.1847ZM65 22C41.804 22 23 40.804 23 64C23 87.196 41.804 106 65 106C88.196 106 107 87.196 107 64C107 40.804 88.196 22 65 22Z" fill="white"/>
</svg>
