<svg viewBox="0 0 291 118" xmlns="http://www.w3.org/2000/svg">
    <g fill="none" fill-rule="evenodd">
        <path d="M107.036 117.74c-6.75 0-11.342-2.613-14.662-6.283l5.533-5.617c2.6 2.947 5.92 4.449 9.683 4.449 4.094 0 6.086-1.835 6.086-4.671 0-2.114-.886-3.67-4.482-4.171l-3.817-.5c-8.134-1.057-11.84-5.061-11.84-11.567 0-6.952 5.421-11.79 14.495-11.79 5.81 0 10.236 1.947 13.39 5.45l-5.588 5.672c-1.826-2.169-4.316-3.67-8.3-3.67-3.762 0-5.588 1.446-5.588 3.781 0 2.67 1.383 3.67 4.592 4.171l3.818.612c7.912 1.279 11.73 4.838 11.73 11.511 0 7.452-5.423 12.623-15.05 12.623zm34.604-.667h-4.87c-5.643 0-8.63-2.947-8.63-8.508V94.273h-4.095v-6.395h2.048c2.213 0 2.877-1.112 2.877-3.114V79.98h7.358v7.897h5.754v6.395h-5.754v16.405h5.312v6.395zm12.582 0h-8.188V87.878h8.188v6.34h.277c.664-3.226 2.877-6.34 7.414-6.34h1.439v7.674h-2.048c-4.758 0-7.082 1.057-7.082 4.449v17.072zm24.257.667c-8.907 0-13.942-5.95-13.942-15.292 0-9.231 4.869-15.237 13.61-15.237 9.627 0 13.5 7.007 13.5 14.903v2.447h-18.645v.445c0 3.837 2.047 6.284 6.418 6.284 3.43 0 5.311-1.613 7.137-3.504l4.095 5.116c-2.6 3.003-6.861 4.838-12.173 4.838zm-.166-24.468c-3.264 0-5.311 2.391-5.311 6.006v.445h10.18v-.5c0-3.56-1.604-5.95-4.869-5.95zm43.4 23.801h-4.536c-2.932 0-5.035-2.002-5.533-5.116h-.332c-.885 3.782-4.094 5.783-8.52 5.783-5.81 0-9.019-3.447-9.019-8.508 0-6.172 4.758-9.12 12.449-9.12h4.592v-1.835c0-2.836-1.383-4.616-4.813-4.616-3.265 0-4.98 1.669-6.252 3.448l-4.87-4.337c2.325-3.448 5.644-5.561 11.73-5.561 8.189 0 12.394 3.781 12.394 10.677v12.79h2.71v6.395zm-15.878-5.06c2.71 0 4.98-1.113 4.98-3.782v-3.448h-3.984c-3.154 0-4.814 1.168-4.814 3.281v.835c0 2.113 1.383 3.114 3.818 3.114zm27.798 5.06h-8.189V87.878h8.189v4.95h.332c1.05-3.115 3.485-5.617 7.8-5.617 3.985 0 6.862 2.057 8.134 5.894h.166c1.051-3.28 4.426-5.894 8.853-5.894 5.588 0 8.686 4.226 8.686 11.567v18.295h-8.188V99.445c0-3.782-1.273-5.561-3.984-5.561-2.435 0-4.814 1.39-4.814 4.282v18.907h-8.188V99.445c0-3.782-1.328-5.561-3.984-5.561-2.379 0-4.813 1.39-4.813 4.282v18.907zm47.716 0h-8.189V87.878h8.189v6.34h.276c.664-3.226 2.877-6.34 7.414-6.34h1.439v7.674h-2.047c-4.759 0-7.082 1.057-7.082 4.449v17.072z" fill="#FFF"/>
        <path d="M69.186 5.141V1.934c0-1.1-.912-1.984-2.005-1.932C45.733 1.026 28.544 18.4 27.68 39.998c.046 1.354 1.136 1.708 1.777 1.708h3.24a1.93 1.93 0 0 0 1.92-1.839C35.536 22.1 49.72 7.86 67.403 6.958c1.349-.174 1.782-.915 1.782-1.817M40.017 41.706h3.101c1.007 0 1.828-.789 1.901-1.798.877-12.072 10.507-21.7 22.539-22.503.538-.036 1.628-.44 1.628-1.842v-3.174a1.932 1.932 0 0 0-2.06-1.93c-15.565 1.022-28.012 13.532-29.028 29.177a1.934 1.934 0 0 0 1.919 2.07m41.214 27.823c.642 0 1.731.355 1.777 1.708-.864 21.599-18.053 38.972-39.501 39.996-1.093.053-2.005-.832-2.005-1.932v-3.207c0-.902.433-1.643 1.782-1.817 17.684-.9 31.867-15.14 32.788-32.909a1.929 1.929 0 0 1 1.919-1.839zm-10.56 0c1.116 0 1.992.952 1.92 2.07-1.016 15.645-13.464 28.156-29.029 29.177a1.932 1.932 0 0 1-2.06-1.93v-3.173c0-1.402 1.09-1.807 1.628-1.843 12.032-.802 21.663-10.43 22.539-22.502.073-1.01.894-1.799 1.9-1.799zm-10.419 0c1.13 0 2.029.975 1.916 2.105-.98 9.849-8.773 17.68-18.572 18.667-1.124.113-2.094-.791-2.094-1.926v-3.189c0-1.304 1.127-1.774 1.677-1.84 6.295-.764 11.289-5.773 12.065-12.094.12-.979.93-1.723 1.911-1.723h3.097zM5.115 41.698c.898 0 1.635.434 1.808 1.79.897 17.774 15.064 32.03 32.742 32.955a1.93 1.93 0 0 1 1.83 1.929v3.257c0 .644-.353 1.74-1.7 1.786C18.307 82.545 1.021 65.27.002 43.712a1.926 1.926 0 0 1 1.923-2.014zm10.37 0c1.393 0 1.796 1.095 1.832 1.636.798 12.093 10.378 21.772 22.389 22.653a1.92 1.92 0 0 1 1.789 1.91v3.118a1.932 1.932 0 0 1-2.06 1.929C23.87 71.923 11.422 59.412 10.407 43.768a1.933 1.933 0 0 1 1.92-2.07zM70.86 27.732c21.488.869 38.774 18.145 39.793 39.703a1.926 1.926 0 0 1-1.922 2.014h-3.191c-.898 0-1.635-.435-1.808-1.79-.897-17.775-15.064-32.03-32.742-32.955a1.93 1.93 0 0 1-1.83-1.929v-3.257c0-.644.353-1.74 1.7-1.786zm.216 10.467l.144.004c15.565 1.02 28.013 13.532 29.028 29.176a1.933 1.933 0 0 1-1.92 2.07h-3.157c-1.394 0-1.797-1.095-1.833-1.636C92.541 55.72 82.961 46.04 70.95 45.16a1.92 1.92 0 0 1-1.789-1.91v-3.118c0-1.121.946-2.002 2.06-1.93zm.178 10.48c9.8.985 17.591 8.817 18.572 18.666a1.923 1.923 0 0 1-1.916 2.104h-3.17c-1.298 0-1.765-1.132-1.831-1.685-.76-6.326-5.744-11.346-12.033-12.126a1.94 1.94 0 0 1-1.714-1.921v-3.113c0-1.135.97-2.039 2.094-1.926zm-45.338-6.981c1.298 0 1.765 1.132 1.831 1.684.76 6.327 5.744 11.347 12.033 12.127a1.94 1.94 0 0 1 1.714 1.921v3.113c0 1.135-.97 2.039-2.094 1.926-9.8-.986-17.591-8.818-18.572-18.667a1.923 1.923 0 0 1 1.916-2.104h3.172zm43.27-18.838v3.188c0 1.305-1.127 1.774-1.677 1.84-6.295.764-11.289 5.773-12.065 12.095-.12.978-.93 1.722-1.911 1.722h-3.097a1.923 1.923 0 0 1-1.916-2.104c.98-9.85 8.773-17.681 18.572-18.667 1.124-.113 2.094.79 2.094 1.926z" fill="#FF5C00"/>
    </g>
</svg>
