<svg viewBox="0 0 298 298" xmlns="http://www.w3.org/2000/svg">
    <path d="M186.32 13.773V5.182c0-2.946-2.456-5.316-5.4-5.176C123.16 2.749 76.87 49.293 74.543 107.154c.124 3.627 3.06 4.576 4.786 4.576h8.726c2.762 0 5.026-2.168 5.17-4.925 2.478-47.601 40.673-85.75 88.298-88.164 3.632-.466 4.797-2.451 4.797-4.868m-78.552 97.957h8.351c2.712 0 4.922-2.113 5.12-4.816 2.36-32.34 28.294-58.137 60.697-60.286 1.45-.096 4.384-1.181 4.384-4.935V33.19c0-3.005-2.548-5.364-5.547-5.169-41.918 2.736-75.438 36.251-78.174 78.163-.195 2.998 2.164 5.546 5.17 5.546m110.99 74.54c1.727 0 4.662.95 4.786 4.575-2.328 57.862-48.617 104.405-106.379 107.15-2.943.139-5.398-2.231-5.398-5.177v-8.591c0-2.417 1.165-4.402 4.797-4.868 47.625-2.414 85.82-40.563 88.299-88.164.143-2.757 2.407-4.926 5.169-4.926zm-28.439 0c3.005 0 5.365 2.547 5.17 5.546-2.736 41.912-36.257 75.427-78.175 78.163-2.999.195-5.547-2.164-5.547-5.169v-8.503c0-3.755 2.935-4.839 4.384-4.935 32.403-2.15 58.338-27.946 60.698-60.286.197-2.704 2.408-4.817 5.119-4.817zm-28.058 0c3.041 0 5.463 2.61 5.16 5.636-2.641 26.387-23.626 47.369-50.016 50.01-3.027.302-5.638-2.119-5.638-5.16v-8.542c0-3.495 3.035-4.752 4.515-4.93 16.952-2.046 30.402-15.465 32.492-32.4.324-2.622 2.506-4.615 5.147-4.615h8.34zM13.775 111.707c2.417 0 4.402 1.165 4.869 4.796 2.414 47.618 40.568 85.808 88.176 88.286 2.758.144 4.927 2.407 4.927 5.168v8.726c0 1.726-.95 4.66-4.577 4.785C49.301 221.14 2.75 174.859.006 117.105c-.14-2.942 2.23-5.397 5.177-5.397zm27.924 0c3.755 0 4.84 2.934 4.936 4.383 2.15 32.398 27.95 58.33 60.294 60.689 2.705.197 4.818 2.407 4.818 5.118v8.35c0 3.005-2.549 5.364-5.547 5.169-41.918-2.736-75.439-36.251-78.175-78.163-.195-2.999 2.165-5.546 5.17-5.546zm149.13-37.414c57.87 2.328 104.42 48.61 107.165 106.363.14 2.943-2.231 5.398-5.176 5.398h-8.593c-2.417 0-4.402-1.165-4.869-4.797-2.414-47.618-40.568-85.807-88.176-88.286-2.758-.143-4.927-2.407-4.927-5.168v-8.726c0-1.726.95-4.66 4.577-4.784zm-4.576 33.22c0-3.004 2.549-5.364 5.547-5.168 41.918 2.735 75.439 36.25 78.175 78.163.195 2.998-2.165 5.546-5.17 5.546h-8.504c-3.755 0-4.84-2.935-4.936-4.384-2.15-32.398-27.95-58.329-60.294-60.688-2.705-.198-4.818-2.408-4.818-5.119zm5.638 22.895c26.39 2.64 47.375 23.622 50.016 50.01.303 3.025-2.118 5.636-5.16 5.636h-8.543c-3.496 0-4.753-3.035-4.931-4.514-2.046-16.95-15.467-30.398-32.405-32.488-2.622-.323-4.615-2.505-4.615-5.146v-8.34c0-3.04 2.612-5.46 5.638-5.158zm-122.095-18.7c3.496 0 4.753 3.034 4.931 4.514 2.047 16.95 15.467 30.397 32.405 32.487 2.622.324 4.615 2.505 4.615 5.147v8.339c0 3.04-2.612 5.461-5.638 5.159-26.39-2.642-47.375-23.623-50.017-50.01-.302-3.025 2.12-5.636 5.16-5.636h8.544zm116.523-50.464v8.541c0 3.496-3.034 4.753-4.515 4.932-16.952 2.045-30.4 15.463-32.492 32.4-.323 2.62-2.505 4.613-5.147 4.613h-8.34c-3.041 0-5.463-2.61-5.16-5.637 2.642-26.386 23.627-47.368 50.017-50.009 3.026-.302 5.637 2.119 5.637 5.16z" fill="#FF5C00" fill-rule="evenodd"/>
</svg>
