<svg viewBox="0 0 121 162" xmlns="http://www.w3.org/2000/svg">
    <g fill="none" fill-rule="evenodd">
        <path d="M10.496 161.842c-4.035 0-6.78-1.542-8.765-3.707l3.308-3.313c1.554 1.739 3.539 2.624 5.788 2.624 2.447 0 3.638-1.082 3.638-2.755 0-1.247-.53-2.165-2.68-2.46l-2.281-.296c-4.862-.623-7.078-2.985-7.078-6.823 0-4.1 3.241-6.954 8.665-6.954 3.473 0 6.119 1.148 8.004 3.215l-3.34 3.346c-1.092-1.28-2.58-2.165-4.961-2.165-2.25 0-3.34.852-3.34 2.23 0 1.575.826 2.165 2.744 2.46l2.282.361c4.73.755 7.012 2.854 7.012 6.79 0 4.396-3.241 7.447-8.996 7.447zm20.685-.394h-2.91c-3.374 0-5.16-1.738-5.16-5.018v-8.431h-2.448v-3.772h1.224c1.323 0 1.72-.657 1.72-1.837v-2.822h4.399v4.659h3.44v3.772h-3.44v9.677h3.175v3.772zm7.522 0h-4.895v-17.221h4.895v3.74h.165c.397-1.903 1.72-3.74 4.432-3.74h.86v4.526h-1.224c-2.844 0-4.233.624-4.233 2.625v10.07zm14.5.394c-5.325 0-8.335-3.51-8.335-9.02 0-5.446 2.91-8.99 8.136-8.99 5.755 0 8.07 4.134 8.07 8.792v1.444H49.928v.262c0 2.264 1.224 3.707 3.837 3.707 2.05 0 3.175-.951 4.266-2.067l2.448 3.018c-1.555 1.772-4.101 2.854-7.276 2.854zm-.1-14.433c-1.95 0-3.175 1.41-3.175 3.542v.263h6.086v-.295c0-2.1-.96-3.51-2.91-3.51zm25.944 14.04h-2.712c-1.753 0-3.01-1.181-3.307-3.018h-.199c-.529 2.23-2.447 3.411-5.093 3.411-3.473 0-5.391-2.034-5.391-5.019 0-3.641 2.844-5.38 7.442-5.38h2.745v-1.082c0-1.673-.827-2.723-2.878-2.723-1.951 0-2.976.984-3.737 2.034l-2.91-2.559c1.389-2.034 3.373-3.28 7.011-3.28 4.895 0 7.409 2.23 7.409 6.298v7.545h1.62v3.772zm-9.492-2.986c1.62 0 2.977-.656 2.977-2.23v-2.034H70.15c-1.885 0-2.877.689-2.877 1.935v.492c0 1.247.827 1.837 2.282 1.837zm16.617 2.985h-4.895v-17.221h4.895v2.92h.198c.629-1.838 2.084-3.314 4.664-3.314 2.381 0 4.1 1.214 4.862 3.477h.099c.628-1.935 2.646-3.477 5.292-3.477 3.34 0 5.192 2.493 5.192 6.823v10.792h-4.895V151.05c0-2.23-.76-3.28-2.381-3.28-1.455 0-2.877.82-2.877 2.525v11.153H91.43V151.05c0-2.23-.794-3.28-2.382-3.28-1.422 0-2.877.82-2.877 2.525v11.153zm28.523 0H109.8v-17.221h4.895v3.74h.166c.397-1.903 1.72-3.74 4.432-3.74h.86v4.526h-1.224c-2.845 0-4.234.624-4.234 2.625v10.07z" fill="#FFF"/>
        <path d="M75.97 5.58V2.1c0-1.194-.989-2.154-2.174-2.098-23.26 1.112-41.9 19.972-42.837 43.417.05 1.47 1.232 1.854 1.927 1.854H36.4a2.092 2.092 0 0 0 2.081-1.996C39.48 23.99 54.861 8.531 74.038 7.553c1.463-.189 1.932-.993 1.932-1.972M44.338 45.273h3.363c1.092 0 1.982-.856 2.061-1.952.951-13.104 11.394-23.557 24.442-24.428.584-.038 1.766-.478 1.766-2v-3.445a2.096 2.096 0 0 0-2.234-2.094c-16.88 1.108-30.378 14.69-31.48 31.672-.078 1.214.872 2.247 2.082 2.247m44.695 30.203c.695 0 1.877.385 1.927 1.854-.938 23.445-19.578 42.305-42.837 43.417-1.185.056-2.174-.904-2.174-2.098v-3.48c0-.98.47-1.784 1.932-1.973 19.178-.978 34.558-16.436 35.556-35.724a2.092 2.092 0 0 1 2.082-1.996zm-11.452 0c1.21 0 2.16 1.032 2.081 2.247-1.101 16.983-14.6 30.564-31.48 31.672a2.096 2.096 0 0 1-2.233-2.094v-3.446c0-1.521 1.182-1.96 1.765-2 13.048-.87 23.492-11.323 24.442-24.427.08-1.096.97-1.952 2.062-1.952zm-11.299 0c1.225 0 2.2 1.058 2.078 2.284-1.064 10.692-9.514 19.194-20.141 20.264-1.219.122-2.27-.859-2.27-2.09v-3.462c0-1.416 1.222-1.926 1.818-1.998 6.826-.829 12.242-6.266 13.084-13.128.13-1.062 1.009-1.87 2.073-1.87h3.358zM6.49 45.264c.973 0 1.773.472 1.96 1.943.973 19.295 16.337 34.77 35.508 35.774a2.094 2.094 0 0 1 1.984 2.094v3.536c0 .699-.383 1.888-1.843 1.938C20.795 89.606 2.049 70.852.944 47.451a2.09 2.09 0 0 1 2.085-2.187zm11.245 0c1.512 0 1.948 1.189 1.987 1.776.866 13.128 11.255 23.635 24.28 24.591 1.089.08 1.94.975 1.94 2.074v3.383a2.096 2.096 0 0 1-2.234 2.095c-16.88-1.109-30.378-14.69-31.48-31.672-.078-1.215.872-2.247 2.082-2.247zm60.052-15.16c23.303.943 42.048 19.697 43.154 43.098a2.09 2.09 0 0 1-2.085 2.187h-3.46c-.973 0-1.773-.472-1.96-1.943-.973-19.295-16.337-34.77-35.508-35.774a2.094 2.094 0 0 1-1.984-2.094v-3.536c0-.699.383-1.888 1.843-1.938zm.241 11.362l.15.004c16.88 1.109 30.378 14.69 31.48 31.672.078 1.215-.872 2.247-2.082 2.247h-3.425c-1.512 0-1.948-1.189-1.987-1.776-.866-13.128-11.255-23.635-24.28-24.591a2.082 2.082 0 0 1-1.94-2.074v-3.383a2.096 2.096 0 0 1 2.234-2.095zm.186 11.375c10.628 1.07 19.078 9.572 20.141 20.264a2.086 2.086 0 0 1-2.077 2.284h-3.44c-1.408 0-1.915-1.23-1.987-1.829-.823-6.868-6.228-12.317-13.048-13.164a2.105 2.105 0 0 1-1.859-2.085v-3.38c0-1.231 1.052-2.212 2.27-2.09zm-49.165-7.577c1.407 0 1.914 1.23 1.986 1.829.824 6.868 6.228 12.317 13.048 13.164a2.105 2.105 0 0 1 1.859 2.085v3.379c0 1.232-1.052 2.213-2.27 2.09-10.628-1.07-19.078-9.572-20.141-20.263a2.087 2.087 0 0 1 2.077-2.284h3.44zM75.97 24.816v3.46c0 1.417-1.222 1.927-1.818 2-6.827.828-12.242 6.265-13.084 13.127-.13 1.063-1.01 1.87-2.073 1.87h-3.358a2.086 2.086 0 0 1-2.078-2.284c1.064-10.692 9.514-19.194 20.14-20.264 1.22-.122 2.27.859 2.27 2.09z" fill="#FF5C00"/>
    </g>
</svg>
